# xmcd CD database file
#
# Track frame offsets:
#	150
#	20577
#	37967
#
# Disc length: 777 seconds
#
# Revision: 1
# Processed by: cddbd v1.5.2PL0 Copyright (c) Steve Scherf et al.
# Submitted via: CDex 1.70beta2
#
DISCID=1a030703
DTITLE=栗林みえ - O.K!.O.K.
DYEAR=1997
DGENRE=seiyu
TTITLE0=O.K!O.K.
TTITLE1=恋のシーソーゲーム
TTITLE2=O.K!O.K.(off vocal)
EXTD=YEAR: 1997
EXTT0=
EXTT1=
EXTT2=
PLAYORDER=
